<svg xmlns="http://www.w3.org/2000/svg" width="1128" height="616" viewBox="0 0 1128 616" role="img" aria-label="phylogenetic tree">
  <style>
    .panel { fill: #f7fbfa; stroke: #d7e3e1; stroke-width: 1; rx: 18; ry: 18; }
    .branch { stroke: #0f172a; stroke-width: 2.2; stroke-linecap: round; fill: none; }
    .branch-colored { stroke-width: 2.8; }
    .scale-bar { stroke: #0f172a; stroke-width: 2; stroke-linecap: round; }
    .collapsed-clade { fill-opacity: 0.95; }
    .metadata-strip-cell { stroke: #f8fafc; stroke-width: 1; }
    .heatmap-cell { stroke: #f8fafc; stroke-width: 1; }
    .internal-pie-slice { stroke: #f8fafc; stroke-width: 0.9; }
    .tip-label { fill: #0f172a; font: 16px "Avenir Next", "Segoe UI", sans-serif; }
    .support-label { fill: #0f766e; font: 12px "Avenir Next", "Segoe UI", sans-serif; }
    .internal-annotation-label { fill: #6d28d9; font: 12px "Avenir Next", "Segoe UI", sans-serif; }
    .legend-title { fill: #334155; font: 12px "Avenir Next", "Segoe UI", sans-serif; text-transform: uppercase; letter-spacing: 0.08em; }
    .legend-label { fill: #334155; font: 13px "Avenir Next", "Segoe UI", sans-serif; }
    .scale-label { fill: #334155; text-anchor: middle; font: 13px "Avenir Next", "Segoe UI", sans-serif; }
    .strip-header { fill: #475569; font: 11px "Avenir Next", "Segoe UI", sans-serif; }
  </style>
  <rect x="1" y="1" width="1126" height="614" class="panel" />
  <line x1="564.8" y1="180.0" x2="564.8" y2="236.0" class="branch"/><line x1="564.8" y1="180.0" x2="567.4" y2="180.0" class="branch"/><line x1="564.8" y1="236.0" x2="564.8" y2="236.0" class="branch"/><line x1="553.1" y1="292.0" x2="553.1" y2="348.0" class="branch"/><line x1="553.1" y1="292.0" x2="568.0" y2="292.0" class="branch"/><line x1="553.1" y1="348.0" x2="559.3" y2="348.0" class="branch"/><line x1="548.8" y1="320.0" x2="548.8" y2="404.0" class="branch"/><line x1="548.8" y1="320.0" x2="553.1" y2="320.0" class="branch"/><line x1="548.8" y1="404.0" x2="562.7" y2="404.0" class="branch"/><line x1="534.9" y1="208.0" x2="534.9" y2="362.0" class="branch"/><line x1="534.9" y1="208.0" x2="564.8" y2="208.0" class="branch"/><line x1="534.9" y1="362.0" x2="548.8" y2="362.0" class="branch"/><line x1="495.1" y1="285.0" x2="495.1" y2="460.0" class="branch"/><line x1="495.1" y1="285.0" x2="534.9" y2="285.0" class="branch"/><line x1="495.1" y1="460.0" x2="551.4" y2="460.0" class="branch"/><line x1="384.1" y1="372.5" x2="384.1" y2="516.0" class="branch"/><line x1="384.1" y1="372.5" x2="495.1" y2="372.5" class="branch"/><line x1="384.1" y1="516.0" x2="550.3" y2="516.0" class="branch"/><line x1="144.8" y1="124.0" x2="144.8" y2="444.2" class="branch"/><line x1="144.8" y1="124.0" x2="208.1" y2="124.0" class="branch"/><line x1="144.8" y1="444.2" x2="384.1" y2="444.2" class="branch"/><line x1="48.0" y1="68.0" x2="48.0" y2="284.1" class="branch"/><line x1="48.0" y1="68.0" x2="48.0" y2="68.0" class="branch"/><line x1="48.0" y1="284.1" x2="144.8" y2="284.1" class="branch"/>
  <text x="66.0" y="73.0" class="tip-label">bat_chile_rv108</text><text x="226.1" y="129.0" class="tip-label">bat_chile_rv50</text><text x="585.4" y="185.0" class="tip-label">cattle_russia_4092_13_2025</text><text x="582.8" y="241.0" class="tip-label">cattle_russia_4092_15_2025</text><text x="574.8" y="212.0" class="internal-annotation-label">north_asia</text><text x="586.0" y="297.0" class="tip-label">raccoon_dog_russia_4092_26_2025</text><text x="577.3" y="353.0" class="tip-label">red_fox_russia_4092_20_2025</text><text x="563.1" y="324.0" class="internal-annotation-label">north_asia</text><text x="580.7" y="409.0" class="tip-label">red_fox_russia_4092_18_2025</text><text x="558.8" y="366.0" class="internal-annotation-label">north_asia</text><text x="544.9" y="289.0" class="internal-annotation-label">north_asia</text><text x="569.4" y="465.0" class="tip-label">raccoon_dog_poland_2021</text><text x="505.1" y="376.5" class="internal-annotation-label">north_asia</text><text x="568.3" y="521.0" class="tip-label">dog_pakistan_pdb011</text><text x="394.1" y="448.2" class="internal-annotation-label">north_asia</text><text x="154.8" y="288.1" class="internal-annotation-label">north_asia</text><text x="58.0" y="180.1" class="internal-annotation-label">north_asia</text>
  <circle cx="758.0" cy="64.0" r="7" fill="#7c3aed" class="trait-marker"/><circle cx="758.0" cy="120.0" r="7" fill="#1d4ed8" class="trait-marker"/><circle cx="758.0" cy="176.0" r="7" fill="#c2410c" class="trait-marker"/><circle cx="758.0" cy="232.0" r="7" fill="#c2410c" class="trait-marker"/><circle cx="564.8" cy="208.0" r="4.5" fill="#c2410c" class="internal-annotation-dot"/><circle cx="758.0" cy="288.0" r="7" fill="#c2410c" class="trait-marker"/><circle cx="758.0" cy="344.0" r="7" fill="#c2410c" class="trait-marker"/><circle cx="553.1" cy="320.0" r="4.5" fill="#c2410c" class="internal-annotation-dot"/><circle cx="758.0" cy="400.0" r="7" fill="#c2410c" class="trait-marker"/><circle cx="548.8" cy="362.0" r="4.5" fill="#c2410c" class="internal-annotation-dot"/><circle cx="534.9" cy="285.0" r="4.5" fill="#c2410c" class="internal-annotation-dot"/><circle cx="758.0" cy="456.0" r="7" fill="#0f766e" class="trait-marker"/><circle cx="495.1" cy="372.5" r="4.5" fill="#c2410c" class="internal-annotation-dot"/><circle cx="758.0" cy="512.0" r="7" fill="#b91c1c" class="trait-marker"/><circle cx="384.1" cy="444.2" r="4.5" fill="#c2410c" class="internal-annotation-dot"/><circle cx="144.8" cy="284.1" r="4.5" fill="#c2410c" class="internal-annotation-dot"/><circle cx="48.0" cy="176.1" r="4.5" fill="#c2410c" class="internal-annotation-dot"/>
  <line x1="48.0" y1="588.0" x2="136.0" y2="588.0" class="scale-bar"/><line x1="48.0" y1="582.0" x2="48.0" y2="594.0" class="scale-bar"/><line x1="136.0" y1="582.0" x2="136.0" y2="594.0" class="scale-bar"/><text x="92.0" y="578.0" class="scale-label">0.05</text>
  <text x="906.0" y="44.0" class="legend-title">categorical trait</text><circle cx="908.0" cy="64.0" r="6" fill="#0f766e" class="trait-marker"/><text x="924.0" y="68.0" class="legend-label">europe</text><circle cx="908.0" cy="86.0" r="6" fill="#1d4ed8" class="trait-marker"/><text x="924.0" y="90.0" class="legend-label">north_america</text><circle cx="908.0" cy="108.0" r="6" fill="#c2410c" class="trait-marker"/><text x="924.0" y="112.0" class="legend-label">north_asia</text><circle cx="908.0" cy="130.0" r="6" fill="#7c3aed" class="trait-marker"/><text x="924.0" y="134.0" class="legend-label">south_america</text><circle cx="908.0" cy="152.0" r="6" fill="#b91c1c" class="trait-marker"/><text x="924.0" y="156.0" class="legend-label">south_asia</text>
  
  
  
</svg>
